<svg xmlns="http://www.w3.org/2000/svg" xmlns:xlink="http://www.w3.org/1999/xlink" viewBox="0 0 118.78 114.23"><defs><style>.cls-1{fill:#302d38;}.cls-2{fill-rule:evenodd;fill:url(#linear-gradient);}.cls-3{fill:url(#linear-gradient-2);}</style><linearGradient id="linear-gradient" x1="59.33" y1="-0.06" x2="59.45" y2="110.95" gradientUnits="userSpaceOnUse"><stop offset="0.01" stop-color="#2d2d45"/><stop offset="1" stop-color="#363451"/></linearGradient><linearGradient id="linear-gradient-2" x1="5.37" y1="55.45" x2="113.97" y2="55.45" gradientUnits="userSpaceOnUse"><stop offset="0.01" stop-color="#2d2d45"/><stop offset="0.03" stop-color="#363451"/></linearGradient></defs><g id="Layer_2" data-name="Layer 2"><g id="Layer_1-2" data-name="Layer 1"><rect class="cls-1" y="90.36" width="118.78" height="23.86" rx="3.89"/><path class="cls-2" d="M114,55.45c0,2,1.9,3.83,4.74,4.76V104a6.94,6.94,0,0,1-6.94,6.93H6.93A6.94,6.94,0,0,1,0,104V60.41c3.18-.88,5.37-2.76,5.37-5s-2.19-4.09-5.37-5V6.93A6.94,6.94,0,0,1,6.93,0H111.84a6.94,6.94,0,0,1,6.94,6.93V50.68C115.94,51.61,114,53.4,114,55.45Z"/><rect class="cls-3" x="5.37" y="54.25" width="108.6" height="2.38"/></g></g></svg>