<svg id="Layer_1" data-name="Layer 1" xmlns="http://www.w3.org/2000/svg" xmlns:xlink="http://www.w3.org/1999/xlink" viewBox="0 0 375 221.7"><defs><style>.cls-1{fill:#fff;}.cls-1,.cls-3,.cls-4,.cls-5{fill-rule:evenodd;}.cls-2{mask:url(#mask);}.cls-3{fill:#211a29;}.cls-4{fill:#1a1823;}.cls-5{fill:#2f2439;}</style><mask id="mask" x="0" y="1" width="1391.41" height="298.93" maskUnits="userSpaceOnUse"><g id="b"><path id="a" class="cls-1" d="M0,1H1301.91V222.39H0Z"/></g></mask></defs><g class="cls-2"><path class="cls-3" d="M1301.91,57.42,984.12,1,858.6,57.42,793.8,29.21,502.68,1,360.31,57.42,273.69,29.21,227.28,48.05,41.32,1,0,20.89V180.81H1301.91Z"/><path class="cls-4" d="M1260.59,2.12,1346.16,80l45.25-55.57ZM1028.22,48.85,1074.63,80,1147.5,74Zm-229-46.73L941.6,95.57l73.17-29.29Zm-481.44,0L443.31,95.57,487.9,63.51Z"/><path class="cls-5" d="M0,95.57,317.79,2.12,443.31,95.57l64.8-46.72L799.23,2.12,941.6,95.57l86.62-46.72L1074.63,80l186-77.92,41.32,33V299.93H0Z"/></g></svg>